<svg width="52" height="52" viewBox="0 0 52 52" fill="none" xmlns="http://www.w3.org/2000/svg">
<rect x="1" y="1" width="50" height="50" rx="15" stroke="white" stroke-width="2"/>
<path d="M26.2857 38.0567L26.2622 38.0441L20.9685 35.2216L26.2857 38.0567ZM26.2857 38.0567L26.3092 38.0441M26.2857 38.0567L26.3092 38.0441M26.3092 38.0441L31.6029 35.2216L26.3092 38.0441ZM36.6214 15.7142V15.7143V26.8571V26.8571H36.5714C36.5732 28.5666 36.1095 30.2442 35.2301 31.71L36.6214 15.7142ZM36.6214 15.7142C36.621 15.2465 36.4349 14.798 36.1042 14.4672C35.7734 14.1365 35.325 13.9505 34.8572 13.95H34.8571M36.6214 15.7142L34.8571 13.95M34.8571 13.95L17.7143 13.95L17.7142 13.95M34.8571 13.95L17.7142 13.95M17.7142 13.95C17.2465 13.9505 16.798 14.1365 16.4673 14.4672C16.1365 14.798 15.9505 15.2465 15.95 15.7142V15.7143M17.7142 13.95L15.95 15.7143M15.95 15.7143V26.8571M15.95 15.7143V26.8571M34.8571 26.8571V15.7643V26.8571ZM34.8571 26.8571C34.8587 28.256 34.4793 29.6288 33.7596 30.8283C33.0399 32.0278 32.007 33.0086 30.772 33.6654L34.8571 26.8571ZM15.95 26.8571C15.9482 28.5756 16.4144 30.2622 17.2985 31.7358C18.1826 33.2094 19.4513 34.4144 20.9685 35.2215L15.95 26.8571ZM22.3867 24.2504L22.3514 24.215L22.316 24.2504L21.1075 25.459L21.0721 25.4943L21.1075 25.5297L24.536 28.9582L24.5714 28.9936L24.6067 28.9582L31.4639 22.1011L31.4992 22.0657L31.4639 22.0304L30.2553 20.8218L30.22 20.7865L30.1846 20.8218L24.5714 26.435L22.3867 24.2504ZM17.7643 26.8572V26.8571V15.7643H34.8071V26.8571V26.8572C34.8087 28.247 34.4317 29.6109 33.7167 30.8026C33.0016 31.9943 31.9755 32.9687 30.7485 33.6213L30.7485 33.6213L26.2857 36.0002L21.823 33.6205L21.8229 33.6204C20.596 32.9679 19.57 31.9936 18.855 30.8021C18.1399 29.6106 17.7629 28.2468 17.7643 26.8572Z" fill="white" stroke="white" stroke-width="0.1"/>
</svg>
