<svg width="20" height="20" viewBox="0 0 20 20" fill="none" xmlns="http://www.w3.org/2000/svg">
<g id="Group 170">
<path id="Vector" d="M10 0C4.48 0 0 4.48 0 10C0 15.52 4.48 20 10 20C15.52 20 20 15.52 20 10C20 4.48 15.52 0 10 0ZM5.35 16.5C6.66 15.56 8.26 15 10 15C11.74 15 13.34 15.56 14.65 16.5C13.34 17.44 11.74 18 10 18C8.26 18 6.66 17.44 5.35 16.5ZM16.14 15.12C14.3884 13.7457 12.2264 12.9988 10 12.9988C7.77362 12.9988 5.6116 13.7457 3.86 15.12C2.65692 13.6853 1.9983 11.8723 2 10C2 5.58 5.58 2 10 2C14.42 2 18 5.58 18 10C18 11.95 17.3 13.73 16.14 15.12Z" fill="#F2B705"/>
<path id="Vector_2" d="M10.002 4C8.07195 4 6.50195 5.57 6.50195 7.5C6.50195 9.43 8.07195 11 10.002 11C11.932 11 13.502 9.43 13.502 7.5C13.502 5.57 11.932 4 10.002 4ZM10.002 9C9.17195 9 8.50195 8.33 8.50195 7.5C8.50195 6.67 9.17195 6 10.002 6C10.832 6 11.502 6.67 11.502 7.5C11.502 8.33 10.832 9 10.002 9Z" fill="#F2B705"/>
</g>
</svg>
