<svg width="199" height="36" viewBox="0 0 199 36" fill="none" xmlns="http://www.w3.org/2000/svg"> <path d="M13.6391 6.00255H17.9254C18.3454 6.00255 18.6787 5.66257 18.6787 5.24927V1.40954C18.6787 0.989564 18.3387 0.65625 17.9254 0.65625H13.8257C8.07945 0.65625 4.91966 3.67604 4.91966 9.15567V11.4888H0.753282C0.333311 11.4888 0 11.8288 0 12.2421V16.0752C0 16.4952 0.339977 16.8285 0.753282 16.8285H4.913V30.6409H0.753282C0.333311 30.6409 0 30.9809 0 31.3942V35.2339C0 35.6539 0.339977 35.9872 0.753282 35.9872H16.6522C17.0722 35.9872 17.4055 35.6472 17.4055 35.2339V31.3942C17.4055 30.9742 17.0655 30.6409 16.6522 30.6409H10.8526V16.8285H16.6522C17.0722 16.8285 17.4055 16.4885 17.4055 16.0752V12.2421C17.4055 11.8222 17.0655 11.4888 16.6522 11.4888H10.8526V9.249C10.8526 6.7025 11.4526 6.00922 13.6391 6.00922V6.00255Z" fill="white"/> <path d="M60.4496 11.8289C57.1432 11.8289 54.4967 12.9222 52.6968 14.9754V13.0089C52.6968 12.5889 52.3568 12.2556 51.9435 12.2556H47.5638C47.1439 12.2556 46.8105 12.5955 46.8105 13.0089V34.8074C46.8105 35.2273 47.1505 35.5606 47.5638 35.5606H51.9435C52.3635 35.5606 52.6968 35.2207 52.6968 34.8074V25.508C52.6968 20.355 55.1633 17.1552 59.1297 17.1552C61.8229 17.1552 63.3827 17.9752 63.3827 22.1749V34.8074C63.3827 35.2273 63.7227 35.5606 64.136 35.5606H68.5157C68.9357 35.5606 69.269 35.2207 69.269 34.8074V21.7483C69.269 15.5354 65.9759 11.8223 60.4563 11.8223L60.4496 11.8289Z" fill="white"/> <path d="M101.2 10.7161C103.507 10.7161 105.32 9.0029 105.32 6.80972C105.32 4.61654 103.513 2.90332 101.2 2.90332C98.8869 2.90332 97.167 4.61654 97.167 6.80972C97.167 9.0029 98.9402 10.7161 101.2 10.7161Z" fill="white"/> <path d="M104.467 30.2346V15.7756C104.467 13.5358 103.213 12.2559 101.033 12.2559H95.2338C94.8138 12.2559 94.4805 12.5958 94.4805 13.0091V16.8289C94.4805 17.2489 94.8205 17.5822 95.2338 17.5822H98.8802V30.228H93.7406C93.3206 30.228 92.9873 30.5679 92.9873 30.9812V34.801C92.9873 35.221 93.3273 35.5543 93.7406 35.5543H109.646C110.066 35.5543 110.399 35.2143 110.399 34.801V30.9812C110.399 30.5613 110.059 30.228 109.646 30.228H104.467V30.2346Z" fill="white"/> <path d="M127.718 26.2471C127.265 29.2136 125.558 30.6602 122.512 30.6602C116.866 30.6602 116.426 25.4739 116.426 23.8873C116.426 20.6342 118.025 17.1611 122.512 17.1611C125.558 17.1611 127.258 18.601 127.718 21.5741L127.758 21.8208C127.811 22.1874 128.131 22.4607 128.505 22.4607H132.864C133.304 22.4607 133.651 22.0808 133.618 21.6408L133.591 21.3275C133.044 14.8013 127.471 11.8281 122.518 11.8281C115.492 11.8281 110.586 16.7878 110.586 23.8873C110.586 30.9868 115.379 35.9931 122.518 35.9931C127.471 35.9931 133.051 33.02 133.591 26.4938L133.618 26.1805C133.658 25.7405 133.304 25.3605 132.864 25.3605H128.505C128.131 25.3605 127.811 25.6338 127.758 26.0005L127.718 26.2471Z" fill="white"/> <path d="M157.396 12.2558H151.57C151.39 12.2558 151.21 12.3225 151.077 12.4425L142.517 19.8886V2.84312C142.517 2.42315 142.177 2.08984 141.764 2.08984H137.384C136.964 2.08984 136.631 2.42982 136.631 2.84312V34.8076C136.631 35.2276 136.971 35.5609 137.384 35.5609H141.764C142.184 35.5609 142.517 35.2209 142.517 34.8076V27.3615L151.05 35.3609C151.19 35.4942 151.377 35.5676 151.563 35.5676H157.269C157.956 35.5676 158.283 34.7343 157.789 34.261L146.477 23.615L157.889 13.5757C158.409 13.1158 158.089 12.2558 157.389 12.2558H157.396Z" fill="white"/> <path d="M190.647 30.268V17.5822H196.553C196.973 17.5822 197.306 17.2422 197.306 16.8289V13.0092C197.306 12.5892 196.966 12.2559 196.553 12.2559H190.647V6.37628C190.647 5.86965 190.16 5.50301 189.673 5.65633L185.294 6.98291C184.974 7.07624 184.76 7.37621 184.76 7.70286V12.2559H180.821C180.401 12.2559 180.067 12.5959 180.067 13.0092V16.8289C180.067 17.2489 180.407 17.5822 180.821 17.5822H184.76V31.5279C184.76 33.7544 186.567 35.561 188.793 35.561H197.406C197.826 35.561 198.159 35.221 198.159 34.8077V30.9813C198.159 30.5613 197.82 30.2213 197.4 30.228L190.64 30.268H190.647Z" fill="white"/> <path d="M82.4006 30.268V17.5822H88.3068C88.7268 17.5822 89.0601 17.2422 89.0601 16.8289V13.0092C89.0601 12.5892 88.7201 12.2559 88.3068 12.2559H82.4006V6.37628C82.4006 5.86965 81.9139 5.50301 81.4273 5.65633L77.0476 6.98291C76.7276 7.07624 76.5143 7.37621 76.5143 7.70286V12.2559H72.5746C72.1546 12.2559 71.8213 12.5959 71.8213 13.0092V16.8289C71.8213 17.2489 72.1613 17.5822 72.5746 17.5822H76.5143V31.5279C76.5143 33.7544 78.3208 35.561 80.5474 35.561H89.1601C89.5801 35.561 89.9134 35.221 89.9134 34.8077V30.9813C89.9134 30.5613 89.5734 30.2213 89.1534 30.228L82.3939 30.268H82.4006Z" fill="white"/> <path d="M173.688 28.6547C173.454 28.6547 173.248 28.7747 173.108 28.9614C172.148 30.2346 170.641 30.8812 168.595 30.8812C164.455 30.8812 163.315 27.7814 163.022 25.6683H179.801V23.2618C179.801 17.0888 174.894 11.9825 168.715 11.8425C161.715 11.6892 157.169 16.3556 157.169 23.6417C157.169 30.9279 161.669 36.0009 168.635 36.0009C175.008 36.0009 177.834 32.5345 179.081 29.7147C179.301 29.2147 178.927 28.6614 178.387 28.6614H173.694L173.688 28.6547ZM168.382 16.9089C171.335 16.9089 173.275 18.3421 173.841 20.8886H163.149C163.755 18.4088 165.675 16.9089 168.382 16.9089Z" fill="white"/> <path d="M41.8041 30.2335V22.3941C41.8041 15.8745 37.791 11.8281 31.3248 11.8281C26.4384 11.8281 22.9654 14.0946 21.5788 18.0077C21.4055 18.501 21.7588 19.0276 22.2854 19.0276H26.8718C27.1251 19.0276 27.3717 18.901 27.505 18.681C28.205 17.5411 29.4249 16.9878 31.2381 16.9878C34.1246 16.9878 35.4778 18.041 35.8311 20.6875L28.5316 21.4008C27.885 21.4608 27.2917 21.5475 26.7384 21.6608C26.3118 21.7408 25.9585 21.8408 25.7718 21.9008C21.4855 23.1474 20.4922 26.1338 20.4922 28.627C20.4922 30.3535 21.0855 35.9931 28.7116 35.9931C32.6114 35.9931 35.0112 34.5999 36.4911 32.9667C36.8644 34.5732 38.151 35.5665 39.9909 35.5665H44.1639C44.5839 35.5665 44.9172 35.2265 44.9172 34.8132V30.9935C44.9172 30.5735 44.5772 30.2402 44.1639 30.2402H41.8041V30.2335ZM29.3183 30.7868C27.3451 30.7868 26.3451 29.9002 26.3451 28.1603C26.3451 27.2004 26.5651 26.4405 29.3849 26.1671L35.8311 25.4872C35.3312 28.6603 32.798 30.7935 29.3183 30.7935V30.7868Z" fill="white"/> </svg>