<svg width="54" height="54" viewBox="0 0 54 54" fill="none" xmlns="http://www.w3.org/2000/svg">
<path d="M46.5552 3H40.164C38.712 3 37.3872 3.7608 36.5784 4.968C34.5096 8.052 30.9936 10.0824 27 10.0824C23.0064 10.0824 19.4904 8.052 17.4216 4.968C16.6128 3.7608 15.288 3 13.836 3H7.4448C4.9896 3 3 4.9896 3 7.4448V46.5552C3 49.0104 4.9896 51 7.4448 51H13.836C15.2904 51 16.6128 50.2392 17.4216 49.032C19.4904 45.948 23.0088 43.9176 27 43.9176C30.9912 43.9176 34.5096 45.948 36.5784 49.032C37.3872 50.2392 38.712 51 40.164 51H46.5552C49.0104 51 51 49.0104 51 46.5552V7.4448C51 4.9896 49.0104 3 46.5552 3Z" stroke="#F2B705" stroke-width="5"/>
<path d="M18.6265 20.0751H35.3741C36.3658 20.0751 37.1695 19.2749 37.1695 18.2875C37.1695 17.3002 36.3658 16.5 35.3741 16.5H18.6265C17.6348 16.5 16.8311 17.3002 16.8311 18.2875C16.8311 19.2749 17.6348 20.0751 18.6265 20.0751Z" fill="#F2B705"/>
<path d="M19.0411 25.435C19.0411 24.4477 18.2374 23.6475 17.2457 23.6475H12.9439C11.9522 23.6475 11.1484 24.4477 11.1484 25.435C11.1484 26.4223 11.9522 27.2225 12.9439 27.2225H17.2457C18.2374 27.2225 19.0411 26.4223 19.0411 25.435Z" fill="#F2B705"/>
<path d="M41.0548 23.6475H24.3072C23.3155 23.6475 22.5117 24.4477 22.5117 25.435C22.5117 26.4223 23.3155 27.2225 24.3072 27.2225H41.0548C42.0464 27.2225 42.8502 26.4223 42.8502 25.435C42.8502 24.4477 42.0464 23.6475 41.0548 23.6475Z" fill="#F2B705"/>
<path d="M33.3321 31.319C29.8409 34.7949 24.1602 34.7949 20.669 31.319C19.9694 30.6202 18.8328 30.6202 18.1309 31.319C17.429 32.0155 17.429 33.1471 18.1309 33.8459C20.5761 36.2804 23.7889 37.4976 26.9994 37.4976C30.2099 37.4976 33.4249 36.2804 35.8679 33.8459C36.5698 33.1494 36.5698 32.0178 35.8679 31.319C35.1683 30.6202 34.0317 30.6202 33.3298 31.319H33.3321Z" fill="#F2B705"/>
</svg>
