<svg width="41" height="40" viewBox="0 0 41 40" fill="none" xmlns="http://www.w3.org/2000/svg">
<path d="M36.5022 0H31.1428C29.9224 0 28.8182 0.635634 28.1338 1.64366C26.4033 4.21188 23.4523 5.9069 20.1075 5.9069C16.7627 5.9069 13.8118 4.2183 12.0813 1.64366C11.4033 0.635634 10.2927 0 9.07229 0H3.72577C1.66594 0 0 1.6565 0 3.70465V36.2953C0 38.3435 1.66594 40 3.72577 40H9.07874C10.2991 40 11.4033 39.3644 12.0878 38.3563C13.8183 35.7881 16.7692 34.0931 20.114 34.0931C23.4588 34.0931 26.4097 35.7817 28.1402 38.3563C28.8182 39.3644 29.9289 40 31.1493 40H36.5087C38.5685 40 40.2345 38.3435 40.2345 36.2953V3.70465C40.2345 1.6565 38.5685 0 36.5087 0H36.5022ZM12.6754 10.6838H27.5526C28.4308 10.6838 29.1475 11.3965 29.1475 12.2697C29.1475 13.1429 28.4308 13.8555 27.5526 13.8555H12.6754C11.7972 13.8555 11.0805 13.1429 11.0805 12.2697C11.0805 11.3965 11.7972 10.6838 12.6754 10.6838ZM11.4485 20.1926H7.62589C6.74771 20.1926 6.03097 19.4799 6.03097 18.6067C6.03097 17.7335 6.74771 17.0209 7.62589 17.0209H11.4485C12.3267 17.0209 13.0434 17.7335 13.0434 18.6067C13.0434 19.4799 12.3267 20.1926 11.4485 20.1926ZM27.9917 26.0674C25.8221 28.2247 22.9681 29.3098 20.114 29.3098C17.2599 29.3098 14.4059 28.2311 12.2363 26.0674C11.6164 25.451 11.6164 24.443 12.2363 23.8266C12.8562 23.2103 13.8699 23.2103 14.4898 23.8266C17.5893 26.9085 22.6387 26.9085 25.7382 23.8266C26.3581 23.2103 27.3718 23.2103 27.9917 23.8266C28.6116 24.443 28.6116 25.451 27.9917 26.0674ZM32.6021 20.1926H17.7249C16.8467 20.1926 16.1299 19.4799 16.1299 18.6067C16.1299 17.7335 16.8467 17.0209 17.7249 17.0209H32.6021C33.4803 17.0209 34.197 17.7335 34.197 18.6067C34.197 19.4799 33.4803 20.1926 32.6021 20.1926Z" fill="#F2B705"/>
</svg>
