<svg xmlns="http://www.w3.org/2000/svg" width="256" height="334" viewBox="0 0 256 334" fill="none"> <path d="M777.87 27.6286L779.577 25.9215H779.513C813.917 -6.65218 868.152 -6.0816 901.752 27.6275L901.753 27.6286C936.044 61.9193 936.042 117.445 901.754 151.623L901.753 151.624C781.238 272.25 622.637 332.565 464.255 332.565C305.873 332.565 147.383 272.251 26.7566 151.624C-7.53408 117.333 -7.53243 61.807 26.7554 27.6298L26.7566 27.6286C61.0472 -6.66201 116.573 -6.66036 150.751 27.6275L150.752 27.6286C323.65 200.527 604.972 200.527 777.87 27.6286Z" stroke="url(#paint0_linear_145_4251)" stroke-width="2"/> <defs> <linearGradient id="paint0_linear_145_4251" x1="464.255" y1="0.911133" x2="464.255" y2="333.565" gradientUnits="userSpaceOnUse"> <stop stop-color="#F2B705"/> <stop offset="1" stop-color="#F2B705" stop-opacity="0"/> </linearGradient> </defs> </svg>