<svg xmlns="http://www.w3.org/2000/svg" width="544" height="333" viewBox="0 0 544 333" fill="none"> <path d="M777.831 26.7175L779.538 25.0104H779.473C813.878 -7.56331 868.113 -6.99273 901.713 26.7164L901.714 26.7175C936.005 61.0082 936.003 116.534 901.715 150.711L901.714 150.713C781.199 271.339 622.598 331.654 464.216 331.654C305.834 331.654 147.344 271.339 26.7175 150.713C-7.57314 116.422 -7.57149 60.8959 26.7164 26.7187L26.7175 26.7175C61.0082 -7.57314 116.534 -7.57149 150.711 26.7164L150.713 26.7175C323.611 199.616 604.933 199.616 777.831 26.7175Z" stroke="url(#paint0_linear_2_4793)" stroke-width="2"/> <defs> <linearGradient id="paint0_linear_2_4793" x1="464.216" y1="0" x2="464.216" y2="332.654" gradientUnits="userSpaceOnUse"> <stop stop-color="#F2B705"/> <stop offset="1" stop-color="#F2B705" stop-opacity="0"/> </linearGradient> </defs> </svg>