<svg xmlns="http://www.w3.org/2000/svg" width="52" height="52" viewBox="0 0 52 52" fill="none"> <rect x="1" y="1" width="50" height="50" rx="13" stroke="#F2B705" stroke-width="2"/> <path fill-rule="evenodd" clip-rule="evenodd" d="M15.0286 14C14.4605 14 14 14.4605 14 15.0286V23.2571C14 23.8252 14.4605 24.2857 15.0286 24.2857H23.2571C23.8252 24.2857 24.2857 23.8252 24.2857 23.2571V15.0286C24.2857 14.4605 23.8252 14 23.2571 14H15.0286ZM16.0571 22.2286V16.0571H22.2286V22.2286H16.0571Z" fill="#F2B705"/> <path fill-rule="evenodd" clip-rule="evenodd" d="M28.7429 14C28.1748 14 27.7143 14.4605 27.7143 15.0286V23.2571C27.7143 23.8252 28.1748 24.2857 28.7429 24.2857H36.9714C37.5395 24.2857 38 23.8252 38 23.2571V15.0286C38 14.4605 37.5395 14 36.9714 14H28.7429ZM29.7714 22.2286V16.0571H35.9429V22.2286H29.7714Z" fill="#F2B705"/> <path fill-rule="evenodd" clip-rule="evenodd" d="M15.0286 27.7143C14.4605 27.7143 14 28.1748 14 28.7429V36.9714C14 37.5395 14.4605 38 15.0286 38H23.2571C23.8252 38 24.2857 37.5395 24.2857 36.9714V28.7429C24.2857 28.1748 23.8252 27.7143 23.2571 27.7143H15.0286ZM16.0571 35.9429V29.7714H22.2286V35.9429H16.0571Z" fill="#F2B705"/> <path fill-rule="evenodd" clip-rule="evenodd" d="M32.8571 27.7143C30.0168 27.7143 27.7143 30.0168 27.7143 32.8571C27.7143 35.6975 30.0168 38 32.8571 38C35.6975 38 38 35.6975 38 32.8571C38 30.0168 35.6975 27.7143 32.8571 27.7143ZM29.7714 32.8571C29.7714 31.153 31.153 29.7714 32.8571 29.7714C34.5613 29.7714 35.9429 31.153 35.9429 32.8571C35.9429 34.5613 34.5613 35.9429 32.8571 35.9429C31.153 35.9429 29.7714 34.5613 29.7714 32.8571Z" fill="#F2B705"/> </svg>