<svg xmlns="http://www.w3.org/2000/svg" width="52" height="52" viewBox="0 0 52 52" fill="none"> <rect x="1" y="1" width="50" height="50" rx="13" stroke="#F2B705" stroke-width="2"/> <path d="M26.3333 26.6667C25.4493 26.6667 24.6014 26.3155 23.9763 25.6904C23.3512 25.0652 23 24.2174 23 23.3333C23 22.4493 23.3512 21.6014 23.9763 20.9763C24.6014 20.3512 25.4493 20 26.3333 20C27.2174 20 28.0652 20.3512 28.6904 20.9763C29.3155 21.6014 29.6667 22.4493 29.6667 23.3333C29.6667 23.7711 29.5804 24.2045 29.4129 24.6089C29.2454 25.0134 28.9999 25.3808 28.6904 25.6904C28.3808 25.9999 28.0134 26.2454 27.6089 26.4129C27.2045 26.5804 26.7711 26.6667 26.3333 26.6667ZM26.3333 14C23.858 14 21.484 14.9833 19.7337 16.7337C17.9833 18.484 17 20.858 17 23.3333C17 30.3333 26.3333 38 26.3333 38C26.3333 38 35.6667 30.3333 35.6667 23.3333C35.6667 20.858 34.6833 18.484 32.933 16.7337C31.1827 14.9833 28.8087 14 26.3333 14Z" fill="#F2B705"/> </svg>