<svg xmlns="http://www.w3.org/2000/svg" width="32" height="33" viewBox="0 0 32 33" fill="none"> <path d="M2.66675 2.95581H4.4083C4.73632 2.95581 4.90034 2.95581 5.03233 3.01613C5.14864 3.06929 5.24721 3.15478 5.31628 3.2624C5.39466 3.38454 5.41786 3.5469 5.46425 3.87163L6.09532 8.28914M6.09532 8.28914L7.49784 18.5977C7.67582 19.9058 7.76481 20.5599 8.07755 21.0523C8.35312 21.4861 8.74819 21.8311 9.21522 22.0456C9.74523 22.2891 10.4053 22.2891 11.7256 22.2891H23.1361C24.3928 22.2891 25.0212 22.2891 25.5347 22.063C25.9875 21.8637 26.3759 21.5423 26.6565 21.1348C26.9747 20.6726 27.0922 20.0554 27.3274 18.8208L29.0922 9.5554C29.175 9.12089 29.2164 8.90363 29.1564 8.73381C29.1038 8.58484 29 8.45939 28.8635 8.37983C28.7079 8.28914 28.4867 8.28914 28.0444 8.28914H6.09532ZM13.3334 28.2891C13.3334 29.0255 12.7365 29.6225 12.0001 29.6225C11.2637 29.6225 10.6667 29.0255 10.6667 28.2891C10.6667 27.5528 11.2637 26.9558 12.0001 26.9558C12.7365 26.9558 13.3334 27.5528 13.3334 28.2891ZM24.0001 28.2891C24.0001 29.0255 23.4031 29.6225 22.6667 29.6225C21.9304 29.6225 21.3334 29.0255 21.3334 28.2891C21.3334 27.5528 21.9304 26.9558 22.6667 26.9558C23.4031 26.9558 24.0001 27.5528 24.0001 28.2891Z" stroke="#F2B705" stroke-width="2.5" stroke-linecap="round" stroke-linejoin="round"/> </svg>