<svg xmlns="http://www.w3.org/2000/svg" width="32" height="23" viewBox="0 0 32 23" fill="none"> <path d="M0 2.62677C0 3.60031 0.8 4.39685 1.77778 4.39685H30.2222C31.2 4.39685 32 3.60031 32 2.62677C32 1.65322 31.2 0.856689 30.2222 0.856689H1.77778C0.8 0.856689 0 1.65322 0 2.62677Z" fill="white"/> <path d="M1.77778 13.3968C0.8 13.3968 0 12.6003 0 11.6268C0 10.6532 0.8 9.85669 1.77778 9.85669H30.2222C31.2 9.85669 32 10.6532 32 11.6268C32 12.6003 31.2 13.3968 30.2222 13.3968H1.77778Z" fill="white"/> <path d="M1.77778 22.3968C0.8 22.3968 0 21.6003 0 20.6268C0 19.6532 0.8 18.8567 1.77778 18.8567H30.2222C31.2 18.8567 32 19.6532 32 20.6268C32 21.6003 31.2 22.3968 30.2222 22.3968H1.77778Z" fill="white"/> </svg>