<svg xmlns="http://www.w3.org/2000/svg" width="52" height="52" viewBox="0 0 52 52" fill="none"> <rect x="1" y="1" width="50" height="50" rx="15" stroke="white" stroke-width="2"/> <path fill-rule="evenodd" clip-rule="evenodd" d="M29.7648 14.25C31.0772 14.2496 32.3619 14.6286 33.464 15.3413C34.5661 16.0541 35.4387 17.0701 35.9768 18.2672C36.5149 19.4643 36.6956 20.7914 36.4971 22.0888C36.2985 23.3862 35.7293 24.5985 34.8578 25.5799L34.6613 25.8011L34.9122 25.9579C36.7133 27.0835 38.1966 28.6509 39.2212 30.5113C40.2458 32.3716 40.7778 34.4631 40.7665 36.5869L40.7665 36.5882C40.7665 36.8964 40.6441 37.1919 40.4262 37.4097C40.2083 37.6276 39.9128 37.75 39.6047 37.75C39.2966 37.75 39.0011 37.6276 38.7832 37.4097C38.5656 37.1921 38.4432 36.897 38.4429 36.5892C38.458 34.6585 37.9211 32.7637 36.8955 31.1279C35.8709 29.4936 34.4011 28.1858 32.6588 27.3581L32.4912 27.2678L31.9504 26.9073L31.9492 26.9065C31.7844 26.798 31.6499 26.6494 31.5584 26.4746C31.467 26.2999 31.4216 26.1048 31.4264 25.9077C31.4316 25.709 31.4877 25.5148 31.5895 25.344C31.6912 25.1731 31.8351 25.0312 32.0074 24.9318C32.6874 24.5392 33.2525 23.9748 33.6461 23.2953C34.0396 22.6157 34.2479 21.8441 34.25 21.0588C34.25 19.8693 33.7774 18.7284 32.9363 17.8872C32.0951 17.0461 30.9543 16.5735 29.7647 16.5735C29.4566 16.5735 29.1611 16.4511 28.9432 16.2333C28.7253 16.0154 28.6029 15.7199 28.6029 15.4118C28.6029 15.1036 28.7253 14.8081 28.9432 14.5903C29.1611 14.3724 29.4567 14.25 29.7648 14.25ZM16.4796 16.2443C17.7565 14.9674 19.4883 14.25 21.2941 14.25C23.0999 14.25 24.8318 14.9674 26.1087 16.2443C27.3856 17.5212 28.1029 19.253 28.1029 21.0588C28.103 22.0193 27.8963 22.9685 27.4971 23.842C27.0979 24.7155 26.5155 25.493 25.7893 26.1216L25.494 26.3772L25.8498 26.5383C27.7823 27.4134 29.4219 28.8266 30.5726 30.6088C31.7232 32.3911 32.3362 34.4671 32.3382 36.5885C32.3382 36.8965 32.2158 37.1919 31.998 37.4097C31.7801 37.6276 31.4846 37.75 31.1765 37.75C30.8683 37.75 30.5729 37.6276 30.355 37.4097C30.1371 37.1919 30.0147 36.8964 30.0147 36.5882C30.0147 34.2754 29.0959 32.0573 27.4605 30.4218C25.8251 28.7864 23.607 27.8676 21.2941 27.8676C18.9813 27.8676 16.7632 28.7864 15.1277 30.4218C13.4923 32.0573 12.5735 34.2754 12.5735 36.5882C12.5735 36.8964 12.4511 37.1919 12.2333 37.4097C12.0154 37.6276 11.7199 37.75 11.4118 37.75C11.1036 37.75 10.8081 37.6276 10.5903 37.4097C10.3724 37.1919 10.25 36.8964 10.25 36.5884C10.2521 34.467 10.865 32.3911 12.0157 30.6088C13.1663 28.8266 14.8059 27.4134 16.7384 26.5383L17.0942 26.3772L16.7989 26.1216C16.0727 25.493 15.4903 24.7155 15.0911 23.842C14.6919 22.9685 14.4853 22.0193 14.4853 21.0588C14.4853 19.253 15.2027 17.5212 16.4796 16.2443ZM23.0106 16.915C22.191 16.5755 21.2891 16.4866 20.4191 16.6597C19.549 16.8328 18.7498 17.26 18.1225 17.8872C17.4953 18.5145 17.0681 19.3137 16.895 20.1838C16.7219 21.0538 16.8108 21.9557 17.1502 22.7753C17.4897 23.5949 18.0646 24.2954 18.8022 24.7882C19.5398 25.2811 20.407 25.5441 21.2941 25.5441C22.4837 25.5441 23.6245 25.0716 24.4657 24.2304C25.3069 23.3893 25.7794 22.2484 25.7794 21.0588C25.7794 20.1717 25.5164 19.3045 25.0235 18.5669C24.5307 17.8293 23.8301 17.2544 23.0106 16.915Z" fill="white"/> </svg>