<svg xmlns="http://www.w3.org/2000/svg" width="52" height="52" viewBox="0 0 52 52" fill="none"> <rect x="1" y="1" width="50" height="50" rx="15" stroke="white" stroke-width="2"/> <path fill-rule="evenodd" clip-rule="evenodd" d="M25.2929 14.2929C25.4804 14.1054 25.7348 14 26 14C26.2652 14 26.5196 14.1054 26.7071 14.2929C26.8946 14.4804 27 14.7348 27 15V19.8227L27.9924 18.7384C28.1869 18.5455 28.4499 18.4371 28.724 18.4371C28.9995 18.4371 29.2638 18.5466 29.4586 18.7414C29.6534 18.9362 29.7629 19.2005 29.7629 19.476C29.7629 19.7512 29.653 20.0158 29.4586 20.2106L26.7137 22.9075L26.7128 22.9084C26.6179 22.999 26.506 23.0699 26.3836 23.1173L26.3751 23.1211C26.257 23.1733 26.1292 23.2003 26 23.2003C25.8708 23.2003 25.7431 23.1731 25.6249 23.1209L25.6163 23.1175C25.4939 23.0701 25.3821 22.999 25.2872 22.9084L22.5408 20.21C22.3464 20.0152 22.2371 19.7512 22.2371 19.476C22.2371 19.2005 22.3466 18.9362 22.5414 18.7414C22.7362 18.5466 23.0005 18.4371 23.276 18.4371C23.5501 18.4371 23.8131 18.5455 24.0076 18.7384L25 19.8227V15C25 14.7348 25.1054 14.4804 25.2929 14.2929ZM13.9958 22.1958C14.6335 21.5582 15.4983 21.2 16.4 21.2H20C20.2652 21.2 20.5196 21.3054 20.7071 21.4929C20.8946 21.6804 21 21.9348 21 22.2C21 22.4652 20.8946 22.7196 20.7071 22.9071C20.5196 23.0946 20.2652 23.2 20 23.2H16.4C16.0287 23.2 15.6726 23.3475 15.4101 23.6101C15.1475 23.8726 15 24.2287 15 24.6V34.2C15 34.5713 15.1475 34.9274 15.4101 35.19C15.6726 35.4525 16.0287 35.6 16.4 35.6H35.6C35.9713 35.6 36.3274 35.4525 36.59 35.19C36.8525 34.9274 37 34.5713 37 34.2V24.6C37 24.2287 36.8525 23.8726 36.59 23.6101C36.3274 23.3475 35.9713 23.2 35.6 23.2H32C31.7348 23.2 31.4804 23.0946 31.2929 22.9071C31.1054 22.7196 31 22.4652 31 22.2C31 21.9348 31.1054 21.6804 31.2929 21.4929C31.4804 21.3054 31.7348 21.2 32 21.2H35.6C36.5017 21.2 37.3665 21.5582 38.0042 22.1958C38.6418 22.8335 39 23.6983 39 24.6V34.2C39 35.1017 38.6418 35.9665 38.0042 36.6042C37.3665 37.2418 36.5017 37.6 35.6 37.6H16.4C15.4983 37.6 14.6335 37.2418 13.9958 36.6042C13.3582 35.9665 13 35.1017 13 34.2V24.6C13 23.6983 13.3582 22.8335 13.9958 22.1958ZM24.1111 26.573C24.6702 26.1994 25.3275 26 26 26C26.9017 26 27.7665 26.3582 28.4042 26.9958C29.0418 27.6335 29.4 28.4983 29.4 29.4C29.4 30.0725 29.2006 30.7298 28.827 31.2889C28.4534 31.8481 27.9224 32.2839 27.3011 32.5412C26.6799 32.7985 25.9962 32.8659 25.3367 32.7347C24.6772 32.6035 24.0713 32.2797 23.5958 31.8042C23.1203 31.3287 22.7965 30.7228 22.6653 30.0633C22.5341 29.4038 22.6015 28.7201 22.8588 28.0989C23.1161 27.4776 23.5519 26.9466 24.1111 26.573ZM26.5358 28.1066C26.2799 28.0006 25.9984 27.9729 25.7269 28.0269C25.4553 28.0809 25.2058 28.2143 25.01 28.4101C24.8143 28.6058 24.6809 28.8553 24.6269 29.1269C24.5729 29.3984 24.6006 29.6799 24.7066 29.9358C24.8125 30.1916 24.992 30.4102 25.2222 30.5641C25.4524 30.7179 25.7231 30.8 26 30.8C26.3713 30.8 26.7274 30.6525 26.9899 30.39C27.2525 30.1274 27.4 29.7713 27.4 29.4C27.4 29.1231 27.3179 28.8524 27.1641 28.6222C27.0102 28.392 26.7916 28.2125 26.5358 28.1066ZM33.0049 28.4192C33.1989 28.3806 33.4 28.4004 33.5827 28.4761C33.7654 28.5518 33.9216 28.68 34.0315 28.8444C34.1414 29.0089 34.2 29.2022 34.2 29.4C34.2 29.6652 34.0946 29.9196 33.9071 30.1071C33.7196 30.2946 33.4652 30.4 33.2 30.4C33.0022 30.4 32.8089 30.3414 32.6444 30.2315C32.48 30.1216 32.3518 29.9654 32.2761 29.7827C32.2004 29.6 32.1806 29.3989 32.2192 29.2049C32.2578 29.0109 32.353 28.8327 32.4929 28.6929C32.6327 28.553 32.8109 28.4578 33.0049 28.4192ZM18.0929 28.6929C18.2804 28.5054 18.5348 28.4 18.8 28.4C18.9978 28.4 19.1911 28.4586 19.3556 28.5685C19.52 28.6784 19.6482 28.8346 19.7239 29.0173C19.7996 29.2 19.8194 29.4011 19.7808 29.5951C19.7422 29.7891 19.647 29.9673 19.5071 30.1071C19.3673 30.247 19.1891 30.3422 18.9951 30.3808C18.8011 30.4194 18.6 30.3996 18.4173 30.3239C18.2346 30.2482 18.0784 30.12 17.9685 29.9556C17.8586 29.7911 17.8 29.5978 17.8 29.4C17.8 29.1348 17.9054 28.8804 18.0929 28.6929Z" fill="white"/> </svg>