<svg width="33" height="22" viewBox="0 0 33 22" fill="none" xmlns="http://www.w3.org/2000/svg"> <path d="M13.4939 3.86841C12.6808 2.60222 11.4787 1.63413 10.0683 1.10964C8.65792 0.585158 7.11538 0.532612 5.67256 0.959906C4.22973 1.3872 2.96457 2.27125 2.06722 3.47918C1.16988 4.68711 0.688828 6.15366 0.696377 7.65841C0.697125 8.90449 1.03249 10.1275 1.66743 11.1997C2.30236 12.2719 3.21358 13.1539 4.30588 13.7536C5.39818 14.3532 6.63147 14.6486 7.87692 14.6087C9.12236 14.5689 10.3343 14.1953 11.386 13.5271C10.8392 15.1507 9.82074 16.8829 8.1428 18.6193C7.82176 18.9514 7.6458 19.3975 7.65363 19.8593C7.66146 20.3211 7.85243 20.761 8.18454 21.082C8.51664 21.403 8.96267 21.579 9.42451 21.5712C9.88635 21.5633 10.3262 21.3724 10.6472 21.0403C16.8498 14.6123 16.0442 7.62501 13.4939 3.87676V3.86841ZM30.1899 3.86841C29.3768 2.60222 28.1747 1.63413 26.7643 1.10964C25.3539 0.585158 23.8114 0.532612 22.3686 0.959906C20.9257 1.3872 19.6606 2.27125 18.7632 3.47918C17.8659 4.68711 17.3848 6.15366 17.3924 7.65841C17.3931 8.90449 17.7285 10.1275 18.3634 11.1997C18.9984 12.2719 19.9096 13.1539 21.0019 13.7536C22.0942 14.3532 23.3275 14.6486 24.5729 14.6087C25.8184 14.5689 27.0303 14.1953 28.082 13.5271C27.5352 15.1507 26.5168 16.8829 24.8388 18.6193C24.5178 18.9514 24.3418 19.3975 24.3496 19.8593C24.3575 20.3211 24.5484 20.761 24.8805 21.082C25.2126 21.403 25.6587 21.579 26.1205 21.5712C26.5824 21.5633 27.0222 21.3724 27.3432 21.0403C33.5458 14.6123 32.7402 7.62501 30.1899 3.87676V3.86841Z" fill="#1C1C1C"/> </svg>