<svg width="384" height="264" viewBox="0 0 384 264" fill="none" xmlns="http://www.w3.org/2000/svg"> <mask id="path-1-inside-1_270_1866" fill="white"> <path fill-rule="evenodd" clip-rule="evenodd" d="M16 0C7.16344 0 0 7.16344 0 16V248C0 256.837 7.16345 264 16 264H135.064C140.454 263.114 145.234 259.924 148.343 255.289C157.772 241.246 173.798 232 192 232C210.202 232 226.228 241.246 235.657 255.289C238.766 259.924 243.546 263.114 248.936 264H368C376.837 264 384 256.837 384 248V16C384 7.16344 376.837 0 368 0H252C245.382 0 239.344 3.46433 235.657 8.96137C226.228 23.0045 210.202 32.25 192 32.25C173.798 32.25 157.772 23.0045 148.343 8.96137C144.656 3.46433 138.618 0 132 0H16Z"/> </mask> <path fill-rule="evenodd" clip-rule="evenodd" d="M16 0C7.16344 0 0 7.16344 0 16V248C0 256.837 7.16345 264 16 264H135.064C140.454 263.114 145.234 259.924 148.343 255.289C157.772 241.246 173.798 232 192 232C210.202 232 226.228 241.246 235.657 255.289C238.766 259.924 243.546 263.114 248.936 264H368C376.837 264 384 256.837 384 248V16C384 7.16344 376.837 0 368 0H252C245.382 0 239.344 3.46433 235.657 8.96137C226.228 23.0045 210.202 32.25 192 32.25C173.798 32.25 157.772 23.0045 148.343 8.96137C144.656 3.46433 138.618 0 132 0H16Z" fill="#1C1C1C"/> <path d="M135.064 264V266H135.227L135.388 265.974L135.064 264ZM148.343 255.289L146.682 254.174L146.682 254.175L148.343 255.289ZM235.657 255.289L237.318 254.175L237.318 254.174L235.657 255.289ZM248.936 264L248.612 265.974L248.773 266H248.936V264ZM235.657 8.96137L237.318 10.0763L237.318 10.0753L235.657 8.96137ZM148.343 8.96137L146.682 10.0753L146.682 10.0763L148.343 8.96137ZM2 16C2 8.26801 8.26801 2 16 2V-2C6.05888 -2 -2 6.05888 -2 16H2ZM2 248V16H-2V248H2ZM16 262C8.26802 262 2 255.732 2 248H-2C-2 257.941 6.05888 266 16 266V262ZM135.064 262H16V266H135.064V262ZM146.682 254.175C143.863 258.378 139.553 261.235 134.739 262.026L135.388 265.974C141.355 264.992 146.606 261.469 150.004 256.403L146.682 254.175ZM192 230C173.103 230 156.467 239.601 146.682 254.174L150.003 256.404C159.077 242.89 174.492 234 192 234V230ZM237.318 254.174C227.533 239.601 210.897 230 192 230V234C209.508 234 224.923 242.89 233.997 256.404L237.318 254.174ZM249.261 262.026C244.447 261.235 240.137 258.378 237.318 254.175L233.996 256.403C237.394 261.469 242.645 264.992 248.612 265.974L249.261 262.026ZM368 262H248.936V266H368V262ZM382 248C382 255.732 375.732 262 368 262V266C377.941 266 386 257.941 386 248H382ZM382 16V248H386V16H382ZM368 2C375.732 2 382 8.26801 382 16H386C386 6.05887 377.941 -2 368 -2V2ZM252 2H368V-2H252V2ZM252 -2C244.665 -2 238.025 1.83942 233.996 7.84743L237.318 10.0753C240.662 5.08925 246.099 2 252 2V-2ZM233.997 7.84647C224.923 21.36 209.508 30.25 192 30.25V34.25C210.897 34.25 227.533 24.649 237.318 10.0763L233.997 7.84647ZM192 30.25C174.492 30.25 159.077 21.36 150.003 7.84647L146.682 10.0763C156.467 24.649 173.103 34.25 192 34.25V30.25ZM150.004 7.84743C145.975 1.83942 139.335 -2 132 -2V2C137.901 2 143.338 5.08925 146.682 10.0753L150.004 7.84743ZM16 2H132V-2H16V2Z" fill="url(#paint0_linear_270_1866)" mask="url(#path-1-inside-1_270_1866)"/> <defs> <linearGradient id="paint0_linear_270_1866" x1="192" y1="0" x2="192" y2="264" gradientUnits="userSpaceOnUse"> <stop stop-color="#828282"/> <stop offset="1" stop-color="#323232"/> </linearGradient> </defs> </svg>