<svg width="40" height="40" viewBox="0 0 40 40" fill="none" xmlns="http://www.w3.org/2000/svg"> <circle cx="20" cy="20" r="19" stroke="#F2B705" stroke-width="2"/> <path d="M20 10C14.48 10 10 14.48 10 20C10 25.52 14.48 30 20 30C25.52 30 30 25.52 30 20C30 14.48 25.52 10 20 10ZM15.35 26.5C16.66 25.56 18.26 25 20 25C21.74 25 23.34 25.56 24.65 26.5C23.34 27.44 21.74 28 20 28C18.26 28 16.66 27.44 15.35 26.5ZM26.14 25.12C24.3884 23.7457 22.2264 22.9988 20 22.9988C17.7736 22.9988 15.6116 23.7457 13.86 25.12C12.6569 23.6853 11.9983 21.8723 12 20C12 15.58 15.58 12 20 12C24.42 12 28 15.58 28 20C28 21.95 27.3 23.73 26.14 25.12Z" fill="#F2B705"/> <path d="M20.002 14C18.072 14 16.502 15.57 16.502 17.5C16.502 19.43 18.072 21 20.002 21C21.932 21 23.502 19.43 23.502 17.5C23.502 15.57 21.932 14 20.002 14ZM20.002 19C19.172 19 18.502 18.33 18.502 17.5C18.502 16.67 19.172 16 20.002 16C20.832 16 21.502 16.67 21.502 17.5C21.502 18.33 20.832 19 20.002 19Z" fill="#F2B705"/> </svg>