<svg width="52" height="52" viewBox="0 0 52 52" fill="none" xmlns="http://www.w3.org/2000/svg"> <rect x="1" y="1" width="50" height="50" rx="13" stroke="white" stroke-width="2"/> <path d="M35.2174 19.0793L21.5861 23.0074H35.7691C35.9679 23.0074 36.1586 23.0864 36.2992 23.227C36.4397 23.3675 36.5187 23.5582 36.5187 23.757V34.2518C36.5187 35.2459 36.1238 36.1993 35.4209 36.9022C34.718 37.6051 33.7646 38 32.7706 38H19.2772C18.2837 37.9992 17.3311 37.604 16.6288 36.9011C15.9265 36.1983 15.5321 35.2454 15.5321 34.2518V23.8635L15.1468 22.5246C15.0104 22.0516 14.9685 21.5564 15.0235 21.0671C15.0785 20.5779 15.2294 20.1044 15.4674 19.6735C15.7055 19.2426 16.0261 18.8628 16.411 18.5558C16.7959 18.2488 17.2374 18.0207 17.7105 17.8844L30.6746 14.1468C31.1476 14.0104 31.6429 13.9685 32.1321 14.0235C32.6213 14.0785 33.0949 14.2294 33.5258 14.4674C33.9567 14.7055 34.3364 15.0261 34.6434 15.411C34.9504 15.7959 35.1785 16.2374 35.3148 16.7105L35.7301 18.1498C35.7576 18.2445 35.7662 18.3437 35.7553 18.4417C35.7444 18.5397 35.7143 18.6346 35.6666 18.721C35.619 18.8073 35.5548 18.8834 35.4777 18.9449C35.4006 19.0064 35.3121 19.0521 35.2174 19.0793ZM16.7914 22.8275L17.7015 22.5651L19.8634 18.8245L18.1243 19.3267C17.5517 19.4919 17.0682 19.8776 16.7797 20.399C16.4913 20.9205 16.4217 21.5351 16.586 22.1078L16.7929 22.8275H16.7914ZM19.778 21.9669L22.9564 21.0494L25.1198 17.3057L21.9339 18.2247C21.9244 18.2462 21.9139 18.2672 21.9024 18.2877L19.7795 21.9684L19.778 21.9669ZM28.2143 19.5351L30.3763 15.7899L27.1888 16.709C27.1774 16.7362 27.1643 16.7627 27.1498 16.7885L25.0374 20.4527L28.2158 19.5366L28.2143 19.5351ZM32.2383 15.5591C32.229 15.5774 32.219 15.5954 32.2083 15.613L30.2908 18.9354L34.0794 17.8439L33.871 17.1243C33.7613 16.7422 33.5522 16.3961 33.2651 16.1212C32.9781 15.8462 32.6233 15.6523 32.2368 15.5591H32.2383ZM17.0313 24.5067V34.2518C17.0313 34.8483 17.2683 35.4203 17.69 35.8421C18.1118 36.2638 18.6838 36.5007 19.2802 36.5007H32.7736C33.37 36.5007 33.942 36.2638 34.3638 35.8421C34.7855 35.4203 35.0225 34.8483 35.0225 34.2518V24.5067H17.0313Z" fill="white"/> </svg>