<svg width="52" height="52" viewBox="0 0 52 52" fill="none" xmlns="http://www.w3.org/2000/svg"> <rect x="1" y="1" width="50" height="50" rx="13" stroke="white" stroke-width="2"/> <path fill-rule="evenodd" clip-rule="evenodd" d="M31.8013 18.3552C31.6312 19.0148 31.2629 19.6064 30.746 20.0502L30.2517 20.4738L30.9061 21.0831C31.3557 21.533 31.7843 22.0078 32.2057 22.4878L32.4248 22.7373L32.7048 22.5588C34.2901 21.5484 36.1355 21.0286 38.0097 21.0599V22.6438C36.5181 22.6223 35.0459 23.0078 33.753 23.7623L33.3864 23.9763L33.633 24.3217C34.7523 25.89 35.6186 27.4965 36.0019 28.8997C36.3857 30.3044 36.2628 31.4032 35.5754 32.1068C35.5077 32.161 35.3959 32.217 35.2355 32.2771C35.1547 32.3073 35.0708 32.3354 34.9828 32.3646L34.9678 32.3696C34.8893 32.3957 34.8059 32.4233 34.7285 32.452L18.5446 37.8191L18.5421 37.8199C18.2012 37.9355 17.8442 37.9963 17.4843 38C16.9315 38.0002 16.3866 37.8688 15.8947 37.6166C15.4022 37.3643 14.9769 36.9982 14.6541 36.5487C14.3313 36.0992 14.1202 35.5793 14.0383 35.032C13.9564 34.4847 14.0063 33.9254 14.1834 33.4011L19.3873 17.9429C19.6082 17.2924 19.7903 16.8576 20.2367 16.4008C21.025 15.6139 22.2134 15.5496 23.752 16.113C25.2825 16.6733 27.0381 17.8173 28.7966 19.23L29.0674 19.4475L29.313 19.2019C29.3343 19.1806 29.356 19.1626 29.3935 19.1315L29.3935 19.1314L29.4168 19.112C29.4615 19.0748 29.5215 19.0238 29.5809 18.9576C30.1642 18.371 30.5047 17.6888 30.2098 16.9948L30.2005 16.9731L30.1888 16.9526C29.9444 16.5293 29.5915 16.1788 29.1665 15.9374C28.8561 15.761 28.5153 15.6474 28.1637 15.6017V14C28.8487 14.0431 29.515 14.2525 30.1038 14.6126C30.7952 15.0354 31.3503 15.648 31.7032 16.3772C31.9357 17.0112 31.97 17.701 31.8013 18.3552ZM27.232 19.9651C25.7514 18.8398 24.4227 17.9734 23.3997 17.5328C22.8944 17.3151 22.4179 17.1806 22.0153 17.2037C21.8074 17.2156 21.6022 17.2706 21.4251 17.3941C21.2454 17.5194 21.1224 17.6961 21.0505 17.9033C20.8641 18.4297 20.8648 18.9454 20.9931 19.4586C21.0006 19.4886 21.0077 19.5198 21.0152 19.5526L21.0152 19.5526C21.0349 19.6393 21.0573 19.7374 21.0958 19.853C21.128 19.9495 21.178 20.0708 21.2209 20.175C21.2416 20.2251 21.2606 20.2712 21.2752 20.3087C21.3254 20.4626 21.3842 20.6136 21.4514 20.7608C21.5109 20.8987 21.5892 21.0385 21.6533 21.1529L21.6533 21.1529L21.6533 21.153C21.675 21.1917 21.6951 21.2276 21.7123 21.2594C21.7355 21.3026 21.7634 21.3572 21.7938 21.4169C21.8462 21.5197 21.9064 21.6377 21.9648 21.74L21.968 21.7456L22.314 22.3063L22.6242 22.8075L22.6279 22.8129C22.7035 22.9264 22.7845 23.0384 22.8624 23.1457L22.879 23.1686C22.9523 23.2695 23.0227 23.3667 23.0906 23.4659L23.4463 23.9565L24.0797 24.7214L24.4255 25.1388L24.4293 25.143C24.7796 25.5417 25.1641 25.938 25.5674 26.3413C27.4999 28.2797 29.3517 29.5424 30.8374 30.2656C31.5793 30.6266 32.2383 30.8572 32.7765 30.9672C33.0455 31.0221 33.2928 31.0487 33.5101 31.0429C33.7224 31.0373 33.9345 31.0001 34.1114 30.9027L34.1546 30.8789L34.1904 30.845C34.3317 30.7116 34.3957 30.5228 34.4256 30.3547C34.4576 30.1752 34.4613 29.9609 34.4367 29.7177C34.3875 29.2302 34.2206 28.5839 33.8798 27.7807L33.8772 27.7745L33.8744 27.7684C33.5901 27.1582 33.2614 26.5697 32.8908 26.0077L32.3416 25.1748L32.1851 26.1601C32.1288 26.5146 32.1142 26.874 32.1414 27.2311L30.5411 27.5431C30.439 26.3785 30.6856 25.2063 31.2543 24.1779L31.3847 23.9422L31.209 23.738C30.7679 23.2254 30.3011 22.7104 29.7968 22.2062L29.0088 21.451L28.7542 21.6071C27.8552 22.1581 26.8479 22.5047 25.8036 22.6247V21.0292C26.2702 20.9564 26.7255 20.821 27.1569 20.6263L27.7499 20.3587L27.232 19.9651ZM20.3945 22.1437L19.8711 21.3587L18.404 25.7601L18.4339 25.8722C18.9266 27.7207 19.8991 29.4063 21.253 30.758C22.6068 32.1097 24.2939 33.0795 26.1433 33.5693L26.2565 33.5993L30.8679 32.0262L29.9188 31.6335C29.4916 31.4567 29.1609 31.2538 28.7772 31.0184L28.6551 30.9435L28.2927 30.7098C28.0408 30.5478 27.7975 30.3728 27.5405 30.1878C27.4725 30.1389 27.4036 30.0893 27.3333 30.0391L26.9058 29.7156L25.9937 28.9789L25.6284 28.6689C25.4358 28.4538 25.2499 28.2713 25.0623 28.0909L24.9569 27.9898C24.7966 27.8363 24.6338 27.6804 24.4547 27.4965C24.0095 27.0396 23.5914 26.5982 23.1979 26.147L22.8588 25.7378L22.8554 25.7337C22.6126 25.4487 22.2804 25.0254 22.1247 24.8268L22.0863 24.778C22.0179 24.691 21.9914 24.6521 21.9444 24.5833L21.9443 24.5833C21.9044 24.5249 21.8497 24.4448 21.742 24.2953C21.5312 24.0025 21.2627 23.6171 21.1481 23.4453C21.0973 23.369 21.0675 23.317 21.0281 23.2467L21.0173 23.2273C20.978 23.1571 20.9291 23.0697 20.8499 22.9396C20.6827 22.6649 20.5265 22.4078 20.4053 22.1653L20.3945 22.1437ZM18.0063 29.003L17.5829 28.1955L15.6909 33.8993C15.5797 34.2354 15.5641 34.5957 15.6457 34.94C15.7274 35.2844 15.9032 35.5993 16.1535 35.8496C16.4037 36.0998 16.7186 36.2756 17.063 36.3573C17.4074 36.439 17.7677 36.4233 18.1037 36.3121L18.1045 36.3119L23.6846 34.4518L22.9135 34.0245C20.8225 32.8658 19.1166 31.1201 18.0063 29.003Z" fill="white"/> </svg>
