<svg width="52" height="52" viewBox="0 0 52 52" fill="none" xmlns="http://www.w3.org/2000/svg">
<rect x="1" y="1" width="50" height="50" rx="13" stroke="white" stroke-width="2"/>
<path fill-rule="evenodd" clip-rule="evenodd" d="M22.5267 16.2688C22.6559 16.1396 22.8312 16.067 23.0139 16.067C23.1966 16.067 23.3719 16.1396 23.5011 16.2688C23.6303 16.398 23.7029 16.5732 23.7029 16.756L23.7029 23.6459V24.7943L23.7029 25.3684C23.7029 25.9392 24.1656 26.4019 24.7364 26.4019C25.3072 26.4019 25.7699 25.9392 25.7699 25.3684V24.7943V23.6459C25.7699 23.4632 25.8425 23.288 25.9717 23.1587C26.1009 23.0295 26.2761 22.9569 26.4589 22.9569C26.6416 22.9569 26.8168 23.0295 26.9461 23.1587C27.0753 23.288 27.1479 23.4632 27.1479 23.6459C27.1479 23.6464 27.1479 23.6469 27.1479 23.6475V25.3684C27.1479 25.9392 27.6106 26.4019 28.1814 26.4019C28.7521 26.4019 29.2148 25.9392 29.2148 25.3684V23.6459C29.2148 23.4632 29.2874 23.288 29.4166 23.1587C29.5459 23.0295 29.7211 22.9569 29.9038 22.9569C30.0866 22.9569 30.2618 23.0295 30.391 23.1587C30.4237 23.1914 30.4528 23.227 30.4779 23.265V25.3684C30.4779 26.0026 30.9921 26.5167 31.6263 26.5167C32.2605 26.5167 32.7746 26.0026 32.7746 25.3684V17.9043C32.7746 17.752 32.8351 17.606 32.9428 17.4983C33.0504 17.3906 33.1965 17.3301 33.3487 17.3301C33.501 17.3301 33.6471 17.3906 33.7547 17.4983C33.8624 17.606 33.9229 17.752 33.9229 17.9043V29.9617C33.9229 31.4845 33.318 32.9449 32.2412 34.0217C31.1645 35.0984 29.7041 35.7033 28.1813 35.7033H26.1235H26.1233H26.1214C25.1711 35.7032 24.2358 35.4672 23.3993 35.0165C22.5624 34.5657 21.8505 33.9141 21.3275 33.1203C21.2534 33.0074 21.1795 32.8943 21.106 32.7811L21.1052 32.78C20.7732 32.2702 19.5407 30.1239 17.3704 26.2661L17.3704 26.266C17.2971 26.1357 17.2775 25.9819 17.3158 25.8374C17.3541 25.6928 17.4473 25.5689 17.5756 25.4921L17.5759 25.4918C17.7662 25.3777 17.9893 25.3303 18.2095 25.3574C18.4298 25.3844 18.6347 25.4843 18.7918 25.6412L20.4793 27.3287C20.9278 27.7772 21.6549 27.7772 22.1033 27.3287C22.4585 26.9735 22.5324 26.4435 22.3249 26.0156V16.756C22.3249 16.5732 22.3975 16.398 22.5267 16.2688ZM20.2579 23.8694V16.756C20.2579 16.025 20.5483 15.3241 21.0651 14.8072C21.582 14.2904 22.283 14 23.0139 14C23.7448 14 24.4458 14.2904 24.9627 14.8072C25.4795 15.3241 25.7699 16.025 25.7699 16.756V20.9775C25.9931 20.9198 26.2244 20.89 26.4589 20.89C27.088 20.89 27.6949 21.1051 28.1814 21.4945C28.6678 21.1051 29.2747 20.89 29.9038 20.89C30.0983 20.89 30.2906 20.9105 30.4779 20.9504V17.9043C30.4779 17.1429 30.7804 16.4127 31.3188 15.8743C31.8572 15.336 32.5874 15.0335 33.3487 15.0335C34.1101 15.0335 34.8403 15.336 35.3787 15.8743C35.9171 16.4127 36.2196 17.1429 36.2196 17.9043V29.9617C36.2196 32.0936 35.3727 34.1382 33.8652 35.6456C32.3577 37.1531 30.3132 38 28.1813 38H26.1237H26.1235H26.121H25.8846C25.8353 38 25.7867 37.9969 25.739 37.9909C24.5409 37.9337 23.3689 37.6089 22.31 37.0385C21.138 36.4071 20.1412 35.4946 19.409 34.3828L19.4084 34.3817C19.332 34.2655 19.2559 34.149 19.1801 34.0323C18.7947 33.4403 17.5125 31.2027 15.3688 27.3922C15.0022 26.7405 14.9043 25.9716 15.0958 25.2489C15.2874 24.5262 15.7534 23.9067 16.3946 23.5223C17.0239 23.1448 17.7612 22.9884 18.4895 23.0779C19.1466 23.1586 19.7624 23.4353 20.2579 23.8694Z" fill="white"/>
</svg>
