<svg width="52" height="52" viewBox="0 0 52 52" fill="none" xmlns="http://www.w3.org/2000/svg"> <rect x="1" y="1" width="50" height="50" rx="13" stroke="white" stroke-width="2"/> <path fill-rule="evenodd" clip-rule="evenodd" d="M15.5799 25.2579L17.8478 22.9571L17.2137 20.3477C16.2892 21.7818 15.7063 23.4568 15.5799 25.2579ZM16.9862 18.078C15.1273 20.1915 14 22.964 14 26C14 32.6276 19.3724 38 26 38C32.6276 38 38 32.6276 38 26C38 22.964 36.8727 20.1915 35.0138 18.078C35.0043 18.0667 34.9945 18.0556 34.9844 18.0448C33.662 16.5524 31.9735 15.3919 30.0595 14.704C30.0544 14.7021 30.0493 14.7003 30.0442 14.6985C28.7806 14.2463 27.4191 14 26 14C24.5809 14 23.2194 14.2463 21.9558 14.6985C21.9507 14.7003 21.9456 14.7021 21.9405 14.704C20.0265 15.3919 18.338 16.5524 17.0156 18.0448C17.0055 18.0556 16.9957 18.0667 16.9862 18.078ZM18.4357 18.7956L19.3721 22.6489L21.6452 23.7146L25.223 21.1149V18.5433L22.0981 16.307C20.7027 16.8693 19.4565 17.7241 18.4357 18.7956ZM23.9869 15.7478L26 17.1884L28.0131 15.7478C27.3617 15.6206 26.6886 15.554 26 15.554C25.3114 15.554 24.6383 15.6206 23.9869 15.7478ZM29.9019 16.307L26.777 18.5433V21.1149L30.3548 23.7146L32.6279 22.6489L33.5643 18.7956C32.5435 17.7241 31.2973 16.8693 29.9019 16.307ZM34.7863 20.3477L34.1522 22.9571L36.4201 25.2579C36.2937 23.4568 35.7108 21.7818 34.7863 20.3477ZM36.3526 27.403L33.1273 24.131L30.9041 25.1733L29.5003 29.4939L30.853 31.3522L35.2375 30.882C35.8009 29.8181 36.1859 28.6451 36.3526 27.403ZM34.1267 32.564L30.9675 32.9028L29.2407 35.9337C31.181 35.3011 32.8716 34.1159 34.1267 32.564ZM27.1991 36.378L29.5656 32.2241L28.2442 30.4087H23.7568L22.4344 32.2243L24.8009 36.378C25.1944 36.4229 25.5945 36.446 26 36.446C26.4055 36.446 26.8056 36.4229 27.1991 36.378ZM22.7593 35.9337L21.0325 32.9028L17.8733 32.564C19.1284 34.1159 20.819 35.3011 22.7593 35.9337ZM16.7625 30.882L21.1471 31.3522L22.5 29.4948L21.0959 25.1733L18.8727 24.131L15.6474 27.403C15.8141 28.6451 16.1991 29.8181 16.7625 30.882ZM22.6441 24.9096L23.926 28.8548H28.074L29.3559 24.9096L26 22.4712L22.6441 24.9096Z" fill="white"/> </svg>