<svg width="52" height="52" viewBox="0 0 52 52" fill="none" xmlns="http://www.w3.org/2000/svg"> <rect x="1" y="1" width="50" height="50" rx="13" stroke="white" stroke-width="2"/> <path fill-rule="evenodd" clip-rule="evenodd" d="M19.1299 14.9362C20.0722 15.3859 20.9069 15.7478 21.6304 15.7478C22.3574 15.7478 23.2296 15.3826 24.1869 14.9343C24.2682 14.8962 24.3502 14.8575 24.4326 14.8186C24.8086 14.6413 25.1918 14.4605 25.5466 14.3187C25.9699 14.1496 26.436 14 26.8739 14C27.4227 14 27.8768 14.139 28.2389 14.3804C28.597 14.6192 28.8277 14.9329 28.9749 15.2272C29.1208 15.519 29.1905 15.803 29.2248 16.0087C29.2422 16.1131 29.2511 16.2015 29.2558 16.2663C29.2581 16.2988 29.2593 16.3256 29.26 16.346C29.2604 16.3562 29.2606 16.3647 29.2607 16.3716L29.2608 16.3806L29.2608 16.3841L29.2608 16.3856C29.2608 16.3859 29.2608 16.3869 28.6218 16.3869H29.2608V19.8424L26.8342 18.2639C25.527 17.6492 24.733 17.718 24.2299 17.9188C23.7317 18.1176 23.4093 18.4768 23.0812 18.8424C23.0468 18.8807 23.0124 18.9191 22.9776 18.9574C22.4276 19.5633 22.2695 20.4165 22.2695 21.6304V24.8912H21.6304C20.6498 24.8912 19.9569 25.1345 19.4587 25.4666C18.9565 25.8014 18.6138 26.2524 18.3786 26.7228C18.2255 27.0289 18.1207 27.3382 18.0491 27.6181L22.2695 25.93V32.7565H20.7565C17.8477 32.7565 16.0872 31.7672 15.0993 30.241C14.1494 28.7735 14 26.9303 14 25.4022V16.3869C14 15.8381 14.139 15.384 14.3804 15.0219C14.6192 14.6638 14.9329 14.4331 15.2272 14.2859C15.519 14.1401 15.803 14.0703 16.0087 14.036C16.1131 14.0186 16.2015 14.0097 16.2663 14.005C16.2988 14.0027 16.3256 14.0015 16.346 14.0008C16.3562 14.0004 16.3647 14.0002 16.3716 14.0001L16.3806 14L16.3841 14L16.3856 14C16.3859 14 16.3869 14 16.3869 14.6391V14C16.8525 14 17.3306 14.1449 17.7693 14.3175C18.1546 14.4691 18.5615 14.664 18.9542 14.8522C19.0131 14.8804 19.0717 14.9085 19.1299 14.9362ZM16.3907 15.2781C16.3901 15.2781 16.3894 15.2781 16.3886 15.2782C16.3833 15.2784 16.3726 15.2788 16.3573 15.2799C16.3265 15.2821 16.2783 15.2868 16.2189 15.2967C16.0968 15.3171 15.9439 15.3565 15.7988 15.4291C15.6561 15.5005 15.5329 15.5974 15.4439 15.7309C15.3576 15.8604 15.2781 16.0618 15.2781 16.3869V25.4022C15.2781 26.8979 15.4381 28.4123 16.1722 29.5465C16.8684 30.622 18.1666 31.4784 20.7565 31.4784H20.9914V27.8178L16.6218 29.5657V28.6218H17.2608C16.6218 28.6218 16.6218 28.6221 16.6218 28.6218L16.6218 28.6203L16.6218 28.6184L16.6218 28.6135L16.622 28.5989C16.6222 28.5871 16.6225 28.5712 16.6232 28.5514C16.6245 28.5119 16.627 28.4568 16.6319 28.3885C16.6417 28.252 16.6608 28.0612 16.6987 27.8339C16.774 27.3824 16.9257 26.7707 17.2354 26.1512C17.5464 25.5292 18.023 24.8877 18.7498 24.4032C19.346 24.0057 20.0853 23.7309 20.9914 23.6432V21.6304C20.9914 20.3694 21.1374 19.0832 22.031 18.0986M16.3907 15.2781C16.6124 15.2789 16.9092 15.3526 17.3013 15.5068C17.6404 15.6402 18.001 15.8129 18.3984 16.0032C18.4579 16.0317 18.5182 16.0605 18.5794 16.0897C19.4684 16.514 20.5676 17.0259 21.6304 17.0259C22.6897 17.0259 23.8205 16.5172 24.729 16.0917C24.8186 16.0497 24.9063 16.0084 24.9921 15.968C25.3664 15.7915 25.7056 15.6316 26.0209 15.5056C26.4176 15.347 26.6931 15.2781 26.8739 15.2781C27.1991 15.2781 27.4004 15.3576 27.5299 15.4439C27.6634 15.5329 27.7604 15.6561 27.8317 15.7988C27.9043 15.9439 27.9438 16.0968 27.9641 16.2189C27.974 16.2783 27.9787 16.3265 27.9809 16.3573C27.982 16.3726 27.9825 16.3833 27.9826 16.3886C27.9827 16.3895 27.9827 16.3903 27.9827 16.3909V17.4863L27.4597 17.1461L27.4216 17.1279C25.8654 16.3861 24.6815 16.3624 23.7562 16.7317C22.9616 17.0488 22.4428 17.6346 22.1284 17.9895C22.0935 18.0289 22.061 18.0656 22.031 18.0986M18.1347 18.7738C17.8407 18.7738 17.5586 18.8906 17.3507 19.0985C17.1428 19.3065 17.0259 19.5885 17.0259 19.8826C17.0259 20.1766 17.1428 20.4587 17.3507 20.6666C17.5586 20.8745 17.8407 20.9914 18.1347 20.9914C18.4288 20.9914 18.7108 20.8745 18.9188 20.6666C19.1267 20.4587 19.2435 20.1766 19.2435 19.8826C19.2435 19.5885 19.1267 19.3065 18.9188 19.0985C18.7108 18.8906 18.4288 18.7738 18.1347 18.7738ZM16.4469 18.1948C16.8946 17.7472 17.5017 17.4957 18.1347 17.4957C18.7678 17.4957 19.3749 17.7472 19.8225 18.1948C20.2701 18.6424 20.5216 19.2495 20.5216 19.8826C20.5216 20.5156 20.2701 21.1227 19.8225 21.5704C19.3749 22.018 18.7678 22.2695 18.1347 22.2695C17.5017 22.2695 16.8946 22.018 16.4469 21.5704C15.9993 21.1227 15.7478 20.5156 15.7478 19.8826C15.7478 19.2495 15.9993 18.6424 16.4469 18.1948ZM27.869 20.1797C28.8113 20.6294 29.6461 20.9914 30.3696 20.9914C31.0966 20.9914 31.9688 20.6261 32.9261 20.1778C33.0074 20.1397 33.0894 20.101 33.1718 20.0622C33.5478 19.8848 33.931 19.704 34.2858 19.5622C34.7091 19.3931 35.1752 19.2435 35.6131 19.2435V19.8826C35.6131 19.2435 35.6128 19.2435 35.6131 19.2435L35.6144 19.2435L35.6159 19.2435L35.6194 19.2435L35.6284 19.2437C35.6353 19.2438 35.6438 19.244 35.654 19.2443C35.6744 19.245 35.7012 19.2462 35.7337 19.2486C35.7985 19.2532 35.8869 19.2621 35.9913 19.2795C36.197 19.3138 36.481 19.3836 36.7728 19.5295C37.0671 19.6766 37.3808 19.9074 37.6196 20.2655C37.861 20.6275 38 21.0816 38 21.6304V30.3696C38 32.2124 37.5405 34.1236 36.3225 35.5853C35.0874 37.0674 33.145 38 30.3696 38C27.5942 38 25.6518 37.0674 24.4167 35.5853C23.1986 34.1236 22.7392 32.2124 22.7392 30.3696V21.6304C22.7392 21.0816 22.8782 20.6275 23.1196 20.2655C23.3583 19.9074 23.6721 19.6766 23.9664 19.5295C24.2582 19.3836 24.5422 19.3138 24.7479 19.2795C24.8523 19.2621 24.9407 19.2532 25.0054 19.2486C25.0379 19.2462 25.0648 19.245 25.0852 19.2443C25.0953 19.244 25.1039 19.2438 25.1108 19.2437L25.1197 19.2435L25.1232 19.2435L25.1247 19.2435C25.1251 19.2435 25.1261 19.2435 25.1261 19.8826V19.2435C25.5917 19.2435 26.0698 19.3884 26.5085 19.561C26.8938 19.7126 27.3007 19.9076 27.6934 20.0957C27.7523 20.1239 27.8109 20.152 27.869 20.1797ZM25.1299 20.5216C25.1293 20.5216 25.1286 20.5217 25.1277 20.5217C25.1225 20.5219 25.1118 20.5223 25.0965 20.5234C25.0657 20.5256 25.0175 20.5303 24.958 20.5402C24.836 20.5606 24.6831 20.6 24.538 20.6726C24.3953 20.744 24.2721 20.8409 24.1831 20.9744C24.0967 21.1039 24.0173 21.3053 24.0173 21.6304V30.3696C24.0173 32.0225 24.4318 33.6069 25.3985 34.767C26.3482 35.9067 27.9015 36.7219 30.3696 36.7219C32.8377 36.7219 34.391 35.9067 35.3407 34.767C36.3074 33.6069 36.7219 32.0225 36.7219 30.3696V21.6304C36.7219 21.3053 36.6424 21.1039 36.5561 20.9744C36.4671 20.8409 36.3439 20.744 36.2012 20.6726C36.0561 20.6 35.9032 20.5606 35.7811 20.5402C35.7217 20.5303 35.6735 20.5256 35.6427 20.5234C35.6274 20.5223 35.6167 20.5219 35.6114 20.5217C35.6106 20.5217 35.61 20.5216 35.6094 20.5216C35.4286 20.5226 35.1541 20.5916 34.7601 20.7491C34.4448 20.8751 34.1056 21.035 33.7313 21.2115C33.6455 21.2519 33.5578 21.2932 33.4682 21.3352C32.5597 21.7607 31.4289 22.2695 30.3696 22.2695C29.3068 22.2695 28.2076 21.7575 27.3186 21.3332C27.2574 21.304 27.1971 21.2752 27.1376 21.2467C26.7402 21.0564 26.3796 20.8837 26.0405 20.7504C25.6484 20.5961 25.3516 20.5225 25.1299 20.5216ZM26.8739 24.0173C26.5799 24.0173 26.2978 24.1341 26.0899 24.3421C25.882 24.55 25.7651 24.832 25.7651 25.1261C25.7651 25.4201 25.882 25.7022 26.0899 25.9101C26.2978 26.118 26.5799 26.2349 26.8739 26.2349C27.168 26.2349 27.45 26.118 27.6579 25.9101C27.8659 25.7022 27.9827 25.4201 27.9827 25.1261C27.9827 24.832 27.8659 24.55 27.6579 24.3421C27.45 24.1341 27.168 24.0173 26.8739 24.0173ZM25.1861 23.4383C25.6338 22.9907 26.2409 22.7392 26.8739 22.7392C27.507 22.7392 28.1141 22.9907 28.5617 23.4383C29.0093 23.8859 29.2608 24.493 29.2608 25.1261C29.2608 25.7591 29.0093 26.3662 28.5617 26.8139C28.1141 27.2615 27.507 27.513 26.8739 27.513C26.2409 27.513 25.6338 27.2615 25.1861 26.8139C24.7385 26.3662 24.487 25.7591 24.487 25.1261C24.487 24.493 24.7385 23.8859 25.1861 23.4383ZM33.8653 24.0173C33.5712 24.0173 33.2892 24.1341 33.0812 24.3421C32.8733 24.55 32.7565 24.832 32.7565 25.1261C32.7565 25.4201 32.8733 25.7022 33.0812 25.9101C33.2892 26.118 33.5712 26.2349 33.8653 26.2349C34.1593 26.2349 34.4414 26.118 34.6493 25.9101C34.8572 25.7022 34.9741 25.4201 34.9741 25.1261C34.9741 24.832 34.8572 24.55 34.6493 24.3421C34.4414 24.1341 34.1593 24.0173 33.8653 24.0173ZM32.1775 23.4383C32.6251 22.9907 33.2322 22.7392 33.8653 22.7392C34.4983 22.7392 35.1054 22.9907 35.5531 23.4383C36.0007 23.8859 36.2522 24.493 36.2522 25.1261C36.2522 25.7591 36.0007 26.3662 35.5531 26.8139C35.1054 27.2615 34.4983 27.513 33.8653 27.513C33.2322 27.513 32.6251 27.2615 32.1775 26.8139C31.7299 26.3662 31.4784 25.7591 31.4784 25.1261C31.4784 24.493 31.7299 23.8859 32.1775 23.4383ZM25.3609 29.7305H35.3782V30.3696H34.7392C35.3782 30.3696 35.3782 30.3692 35.3782 30.3696V30.371L35.3782 30.3729L35.3782 30.3778L35.378 30.3924C35.3779 30.3992 35.3778 30.4072 35.3775 30.4166C35.3773 30.4237 35.3771 30.4315 35.3768 30.44C35.3755 30.4795 35.373 30.5345 35.3681 30.6029C35.3583 30.7394 35.3391 30.9301 35.3013 31.1574C35.226 31.6089 35.0743 32.2207 34.7646 32.8402C34.4536 33.4622 33.977 34.1036 33.2502 34.5882C32.5195 35.0753 31.5738 35.3782 30.3696 35.3782C29.1654 35.3782 28.2197 35.0753 27.4889 34.5882C26.7622 34.1036 26.2856 33.4622 25.9746 32.8402C25.6649 32.2207 25.5132 31.6089 25.4379 31.1574C25.4 30.9301 25.3809 30.7394 25.3711 30.6029C25.3662 30.5345 25.3637 30.4795 25.3624 30.44C25.3617 30.4202 25.3614 30.4042 25.3612 30.3924L25.361 30.3778L25.361 30.3729L25.3609 30.371V30.3703C25.3609 30.3699 25.3609 30.3696 26 30.3696L25.3609 30.3703L25.3609 29.7305ZM26.7092 31.0086C26.7736 31.3676 26.8943 31.8216 27.1178 32.2686C27.353 32.739 27.6957 33.1899 28.1979 33.5247C28.6961 33.8568 29.389 34.1001 30.3696 34.1001C31.3502 34.1001 32.0431 33.8568 32.5413 33.5247C33.0435 33.1899 33.3862 32.739 33.6214 32.2686C33.8449 31.8216 33.9656 31.3676 34.0299 31.0086H26.7092Z" fill="white"/> </svg>