<svg width="48" height="48" viewBox="0 0 48 48" fill="none" xmlns="http://www.w3.org/2000/svg"> <circle cx="24" cy="24" r="23" stroke="#F2B705" stroke-width="2"/> <path d="M36 16.3089C35.1013 16.707 34.148 16.9683 33.1719 17.0842C34.1887 16.4748 34.9693 15.5098 35.3369 14.3601C34.3704 14.9336 33.3129 15.3377 32.2103 15.5549C31.312 14.598 30.0324 14 28.6162 14C25.8968 14 23.6921 16.2046 23.6921 18.9238C23.6921 19.3097 23.7357 19.6855 23.8196 20.0459C19.7274 19.8405 16.0993 17.8803 13.6707 14.9013C13.247 15.6285 13.0042 16.4744 13.0042 17.3767C13.0042 19.085 13.8735 20.592 15.1946 21.4751C14.4127 21.4506 13.648 21.2394 12.9643 20.8591C12.964 20.8798 12.964 20.9004 12.964 20.9211C12.964 23.3068 14.6613 25.2969 16.9137 25.7492C16.1886 25.9464 15.4281 25.9753 14.6902 25.8336C15.3167 27.7898 17.1352 29.2133 19.2897 29.2531C17.6046 30.5737 15.4814 31.3609 13.1746 31.3609C12.7771 31.3609 12.3852 31.3376 12 31.2921C14.179 32.6892 16.7672 33.5043 19.5478 33.5043C28.6047 33.5043 33.5573 26.0014 33.5573 19.4948C33.5573 19.2812 33.5526 19.0689 33.543 18.8578C34.507 18.1609 35.339 17.2978 36 16.3089Z" fill="#F2B705"/> </svg>