<svg width="48" height="48" viewBox="0 0 48 48" fill="none" xmlns="http://www.w3.org/2000/svg"> <circle cx="24" cy="24" r="23" stroke="#F2B705" stroke-width="2"/> <path d="M35.7355 18.0364C35.5978 17.5276 35.3293 17.0638 34.9566 16.6912C34.584 16.3185 34.1202 16.0499 33.6115 15.9122C31.749 15.4043 24.2532 15.4043 24.2532 15.4043C24.2532 15.4043 16.757 15.4197 14.8945 15.9276C14.3858 16.0653 13.922 16.3339 13.5493 16.7066C13.1766 17.0793 12.9081 17.5431 12.7705 18.0518C12.2071 21.3611 11.9886 26.4036 12.7859 29.5805C12.9236 30.0892 13.1921 30.553 13.5648 30.9257C13.9375 31.2984 14.4012 31.5669 14.91 31.7046C16.7724 32.2125 24.2685 32.2125 24.2685 32.2125C24.2685 32.2125 31.7644 32.2125 33.6267 31.7046C34.1355 31.5669 34.5993 31.2984 34.972 30.9257C35.3446 30.553 35.6132 30.0892 35.7509 29.5805C36.3451 26.2665 36.5282 21.2272 35.7355 18.0365V18.0364Z" fill="#F2B705"/> <path d="M21.8672 27.4096L28.0855 23.8078L21.8672 20.2061V27.4096Z" fill="#1C1C1C"/> </svg>