<svg width="48" height="48" viewBox="0 0 48 48" fill="none" xmlns="http://www.w3.org/2000/svg"> <path d="M47 24C47 35.0737 39.1732 44.3206 28.75 46.5088V31.9375H33.3422H34.2005L34.3306 31.0891L35.3947 24.1516L35.5713 23H34.4062H28.75V19.4981C28.75 18.6944 28.9485 18.0237 29.3439 17.5664C29.7159 17.1362 30.3876 16.75 31.6613 16.75H34.6875H35.6875V15.75V9.84375V8.99996L34.8557 8.858L34.6875 9.84375C34.8557 8.858 34.8557 8.85799 34.8556 8.85797L34.8553 8.85793L34.8546 8.85781L34.8525 8.85745L34.8453 8.85624L34.8192 8.85189C34.7967 8.84817 34.7641 8.84284 34.7221 8.83613C34.6382 8.82272 34.5166 8.80378 34.363 8.78117C34.056 8.73597 33.6201 8.67595 33.1007 8.61598C32.0662 8.49652 30.6813 8.375 29.3151 8.375C26.372 8.375 23.8284 9.27061 22.0194 11.0813C20.2093 12.8931 19.25 15.5054 19.25 18.7125V23H14.1562H13.1562V24V30.9375V31.9375H14.1562H19.25V46.5088C8.8268 44.3206 1 35.0735 1 24C1 11.2974 11.2975 1 24 1C36.7025 1 47 11.2975 47 24Z" stroke="#F2B705" stroke-width="2"/> </svg>
